{
    "asset" : {
        "generator" : "Khronos glTF Blender I/O v1.7.33",
        "version" : "2.0"
    },
    "scene" : 0,
    "scenes" : [
        {
            "name" : "Scene",
            "nodes" : [
                0,
                1,
                2,
                3,
                4
            ]
        }
    ],
    "nodes" : [
        {
            "mesh" : 0,
            "name" : "Cube",
            "scale" : [
                0.3026353716850281,
                0.3026353716850281,
                0.3026353716850281
            ],
            "translation" : [
                6.884099960327148,
                -0.10055229067802429,
                -0.4368068277835846
            ]
        },
        {
            "mesh" : 1,
            "name" : "Cube.001",
            "rotation" : [
                -0.07437822967767715,
                0.2080792933702469,
                -0.008782950229942799,
                0.9752403497695923
            ],
            "scale" : [
                0.040632035583257675,
                6.7275896072387695,
                0.5433555841445923
            ],
            "translation" : [
                3.6643831729888916,
                -5.716239929199219,
                -2.38883638381958
            ]
        },
        {
            "mesh" : 2,
            "name" : "Cube.002",
            "rotation" : [
                0.028927059844136238,
                -0.26025253534317017,
                0.07756801694631577,
                0.9619849324226379
            ],
            "scale" : [
                0.040632035583257675,
                6.7275896072387695,
                0.5433555841445923
            ],
            "translation" : [
                5.13801383972168,
                -7.416184425354004,
                1.6378977298736572
            ]
        },
        {
            "mesh" : 3,
            "name" : "Cube.003",
            "rotation" : [
                0.2695762813091278,
                0.806645929813385,
                0.08445329964160919,
                0.5191518664360046
            ],
            "scale" : [
                0.040632035583257675,
                6.7275896072387695,
                0.5433555841445923
            ],
            "translation" : [
                -4.584985733032227,
                -5.2570576667785645,
                0.8610048294067383
            ]
        },
        {
            "mesh" : 4,
            "name" : "Cube.004",
            "rotation" : [
                0.1570759415626526,
                0.9499683976173401,
                -0.08315052092075348,
                0.25685250759124756
            ],
            "scale" : [
                0.040632035583257675,
                6.7275896072387695,
                0.5433555841445923
            ],
            "translation" : [
                -3.1653995513916016,
                -4.443243980407715,
                -6.699868202209473
            ]
        }
    ],
    "animations" : [
        {
            "channels" : [
                {
                    "sampler" : 0,
                    "target" : {
                        "node" : 0,
                        "path" : "translation"
                    }
                },
                {
                    "sampler" : 1,
                    "target" : {
                        "node" : 0,
                        "path" : "rotation"
                    }
                },
                {
                    "sampler" : 2,
                    "target" : {
                        "node" : 0,
                        "path" : "scale"
                    }
                }
            ],
            "name" : "CubeAction",
            "samplers" : [
                {
                    "input" : 21,
                    "interpolation" : "LINEAR",
                    "output" : 22
                },
                {
                    "input" : 21,
                    "interpolation" : "LINEAR",
                    "output" : 23
                },
                {
                    "input" : 24,
                    "interpolation" : "LINEAR",
                    "output" : 25
                }
            ]
        }
    ],
    "materials" : [
        {
            "doubleSided" : true,
            "name" : "Material.002",
            "pbrMetallicRoughness" : {
                "baseColorFactor" : [
                    0.6819869875907898,
                    0.8000000715255737,
                    0.0005225127097219229,
                    1
                ],
                "metallicFactor" : 0,
                "roughnessFactor" : 0.5
            }
        },
        {
            "doubleSided" : true,
            "name" : "Material.003",
            "pbrMetallicRoughness" : {
                "baseColorFactor" : [
                    0,
                    0,
                    0,
                    1
                ],
                "metallicFactor" : 0,
                "roughnessFactor" : 0.5
            }
        },
        {
            "doubleSided" : true,
            "name" : "GRASS",
            "pbrMetallicRoughness" : {
                "baseColorFactor" : [
                    0.07881864905357361,
                    0.47300493717193604,
                    0.023472322151064873,
                    1
                ],
                "metallicFactor" : 0,
                "roughnessFactor" : 0.5
            }
        }
    ],
    "meshes" : [
        {
            "name" : "Cube.001",
            "primitives" : [
                {
                    "attributes" : {
                        "POSITION" : 0,
                        "NORMAL" : 1,
                        "TEXCOORD_0" : 2
                    },
                    "indices" : 3,
                    "material" : 0
                },
                {
                    "attributes" : {
                        "POSITION" : 4,
                        "NORMAL" : 5,
                        "TEXCOORD_0" : 6
                    },
                    "indices" : 7,
                    "material" : 1
                }
            ]
        },
        {
            "name" : "Cube",
            "primitives" : [
                {
                    "attributes" : {
                        "POSITION" : 8,
                        "NORMAL" : 9,
                        "TEXCOORD_0" : 10
                    },
                    "indices" : 11,
                    "material" : 2
                }
            ]
        },
        {
            "name" : "Cube.004",
            "primitives" : [
                {
                    "attributes" : {
                        "POSITION" : 12,
                        "NORMAL" : 13,
                        "TEXCOORD_0" : 14
                    },
                    "indices" : 11,
                    "material" : 2
                }
            ]
        },
        {
            "name" : "Cube.005",
            "primitives" : [
                {
                    "attributes" : {
                        "POSITION" : 15,
                        "NORMAL" : 16,
                        "TEXCOORD_0" : 17
                    },
                    "indices" : 11,
                    "material" : 2
                }
            ]
        },
        {
            "name" : "Cube.006",
            "primitives" : [
                {
                    "attributes" : {
                        "POSITION" : 18,
                        "NORMAL" : 19,
                        "TEXCOORD_0" : 20
                    },
                    "indices" : 11,
                    "material" : 2
                }
            ]
        }
    ],
    "accessors" : [
        {
            "bufferView" : 0,
            "componentType" : 5126,
            "count" : 201,
            "max" : [
                5.689079284667969,
                1.5914233922958374,
                1.6233656406402588
            ],
            "min" : [
                -2.9736204147338867,
                -1.5914233922958374,
                -1.6233656406402588
            ],
            "type" : "VEC3"
        },
        {
            "bufferView" : 1,
            "componentType" : 5126,
            "count" : 201,
            "type" : "VEC3"
        },
        {
            "bufferView" : 2,
            "componentType" : 5126,
            "count" : 201,
            "type" : "VEC2"
        },
        {
            "bufferView" : 3,
            "componentType" : 5123,
            "count" : 636,
            "type" : "SCALAR"
        },
        {
            "bufferView" : 4,
            "componentType" : 5126,
            "count" : 181,
            "max" : [
                5.689079284667969,
                2.847991466522217,
                3.4183034896850586
            ],
            "min" : [
                -2.795966625213623,
                -1.5914233922958374,
                -3.4427497386932373
            ],
            "type" : "VEC3"
        },
        {
            "bufferView" : 5,
            "componentType" : 5126,
            "count" : 181,
            "type" : "VEC3"
        },
        {
            "bufferView" : 6,
            "componentType" : 5126,
            "count" : 181,
            "type" : "VEC2"
        },
        {
            "bufferView" : 7,
            "componentType" : 5123,
            "count" : 588,
            "type" : "SCALAR"
        },
        {
            "bufferView" : 8,
            "componentType" : 5126,
            "count" : 24,
            "max" : [
                1,
                1,
                1
            ],
            "min" : [
                -1,
                -1,
                -1
            ],
            "type" : "VEC3"
        },
        {
            "bufferView" : 9,
            "componentType" : 5126,
            "count" : 24,
            "type" : "VEC3"
        },
        {
            "bufferView" : 10,
            "componentType" : 5126,
            "count" : 24,
            "type" : "VEC2"
        },
        {
            "bufferView" : 11,
            "componentType" : 5123,
            "count" : 36,
            "type" : "SCALAR"
        },
        {
            "bufferView" : 12,
            "componentType" : 5126,
            "count" : 24,
            "max" : [
                1,
                1,
                1
            ],
            "min" : [
                -1,
                -1,
                -1
            ],
            "type" : "VEC3"
        },
        {
            "bufferView" : 13,
            "componentType" : 5126,
            "count" : 24,
            "type" : "VEC3"
        },
        {
            "bufferView" : 14,
            "componentType" : 5126,
            "count" : 24,
            "type" : "VEC2"
        },
        {
            "bufferView" : 15,
            "componentType" : 5126,
            "count" : 24,
            "max" : [
                1,
                1,
                1
            ],
            "min" : [
                -1,
                -1,
                -1
            ],
            "type" : "VEC3"
        },
        {
            "bufferView" : 16,
            "componentType" : 5126,
            "count" : 24,
            "type" : "VEC3"
        },
        {
            "bufferView" : 17,
            "componentType" : 5126,
            "count" : 24,
            "type" : "VEC2"
        },
        {
            "bufferView" : 18,
            "componentType" : 5126,
            "count" : 24,
            "max" : [
                1,
                1,
                1
            ],
            "min" : [
                -1,
                -1,
                -1
            ],
            "type" : "VEC3"
        },
        {
            "bufferView" : 19,
            "componentType" : 5126,
            "count" : 24,
            "type" : "VEC3"
        },
        {
            "bufferView" : 20,
            "componentType" : 5126,
            "count" : 24,
            "type" : "VEC2"
        },
        {
            "bufferView" : 21,
            "componentType" : 5126,
            "count" : 195,
            "max" : [
                8.083333333333334
            ],
            "min" : [
                0
            ],
            "type" : "SCALAR"
        },
        {
            "bufferView" : 22,
            "componentType" : 5126,
            "count" : 195,
            "type" : "VEC3"
        },
        {
            "bufferView" : 23,
            "componentType" : 5126,
            "count" : 195,
            "type" : "VEC4"
        },
        {
            "bufferView" : 24,
            "componentType" : 5126,
            "count" : 2,
            "max" : [
                8.083333333333334
            ],
            "min" : [
                0
            ],
            "type" : "SCALAR"
        },
        {
            "bufferView" : 25,
            "componentType" : 5126,
            "count" : 2,
            "type" : "VEC3"
        }
    ],
    "bufferViews" : [
        {
            "buffer" : 0,
            "byteLength" : 2412,
            "byteOffset" : 0
        },
        {
            "buffer" : 0,
            "byteLength" : 2412,
            "byteOffset" : 2412
        },
        {
            "buffer" : 0,
            "byteLength" : 1608,
            "byteOffset" : 4824
        },
        {
            "buffer" : 0,
            "byteLength" : 1272,
            "byteOffset" : 6432
        },
        {
            "buffer" : 0,
            "byteLength" : 2172,
            "byteOffset" : 7704
        },
        {
            "buffer" : 0,
            "byteLength" : 2172,
            "byteOffset" : 9876
        },
        {
            "buffer" : 0,
            "byteLength" : 1448,
            "byteOffset" : 12048
        },
        {
            "buffer" : 0,
            "byteLength" : 1176,
            "byteOffset" : 13496
        },
        {
            "buffer" : 0,
            "byteLength" : 288,
            "byteOffset" : 14672
        },
        {
            "buffer" : 0,
            "byteLength" : 288,
            "byteOffset" : 14960
        },
        {
            "buffer" : 0,
            "byteLength" : 192,
            "byteOffset" : 15248
        },
        {
            "buffer" : 0,
            "byteLength" : 72,
            "byteOffset" : 15440
        },
        {
            "buffer" : 0,
            "byteLength" : 288,
            "byteOffset" : 15512
        },
        {
            "buffer" : 0,
            "byteLength" : 288,
            "byteOffset" : 15800
        },
        {
            "buffer" : 0,
            "byteLength" : 192,
            "byteOffset" : 16088
        },
        {
            "buffer" : 0,
            "byteLength" : 288,
            "byteOffset" : 16280
        },
        {
            "buffer" : 0,
            "byteLength" : 288,
            "byteOffset" : 16568
        },
        {
            "buffer" : 0,
            "byteLength" : 192,
            "byteOffset" : 16856
        },
        {
            "buffer" : 0,
            "byteLength" : 288,
            "byteOffset" : 17048
        },
        {
            "buffer" : 0,
            "byteLength" : 288,
            "byteOffset" : 17336
        },
        {
            "buffer" : 0,
            "byteLength" : 192,
            "byteOffset" : 17624
        },
        {
            "buffer" : 0,
            "byteLength" : 780,
            "byteOffset" : 17816
        },
        {
            "buffer" : 0,
            "byteLength" : 2340,
            "byteOffset" : 18596
        },
        {
            "buffer" : 0,
            "byteLength" : 3120,
            "byteOffset" : 20936
        },
        {
            "buffer" : 0,
            "byteLength" : 8,
            "byteOffset" : 24056
        },
        {
            "buffer" : 0,
            "byteLength" : 24,
            "byteOffset" : 24064
        }
    ],
    "buffers" : [
        {
            "byteLength" : 24088,
            "uri" : "data:application/octet-stream;base64,"
        }
    ]
}
